<svg width="35" height="35" viewBox="0 0 35 35" fill="none" xmlns="http://www.w3.org/2000/svg">
<path d="M17.5 35C27.165 35 35 27.165 35 17.5C35 7.83502 27.165 0 17.5 0C7.83502 0 0 7.83502 0 17.5C0 27.165 7.83502 35 17.5 35Z" fill="url(#paint0_linear)"/>
<path d="M6.51746 18.356C8.56321 17.2292 10.8468 16.2887 12.9805 15.3434C16.6513 13.7951 20.3366 12.2736 24.0592 10.8571C24.7834 10.6158 26.0848 10.3798 26.2124 11.4531C26.1425 12.9724 25.8551 14.4828 25.6579 15.9931C25.1575 19.3146 24.5791 22.6248 24.0151 25.9353C23.8208 27.0381 22.4394 27.6089 21.5555 26.9032C19.4313 25.4684 17.2907 24.0475 15.1937 22.5794C14.5067 21.8814 15.1437 20.879 15.7572 20.3805C17.5068 18.6563 19.3622 17.1914 21.0204 15.3782C21.4676 14.2981 20.1461 15.2083 19.7102 15.4873C17.315 17.1378 14.9785 18.8891 12.4532 20.3397C11.1633 21.0498 9.65991 20.443 8.3706 20.0468C7.21459 19.5681 5.52058 19.0859 6.51735 18.3561L6.51746 18.356Z" fill="white"/>
<defs>
<linearGradient id="paint0_linear" x1="23.3348" y1="5.8345" x2="14.5848" y2="26.25" gradientUnits="userSpaceOnUse">
<stop stop-color="#37AEE2"/>
<stop offset="1" stop-color="#1E96C8"/>
</linearGradient>
</defs>
</svg>
