<svg width="36" height="36" viewBox="0 0 36 36" fill="none" xmlns="http://www.w3.org/2000/svg">
<path fill-rule="evenodd" clip-rule="evenodd" d="M13.0547 0.927094H23.7993C33.6052 0.927094 35.927 3.2489 35.927 13.0548V23.7994C35.927 33.6053 33.6052 35.9271 23.7993 35.9271H13.0547C3.24882 35.9271 0.927013 33.6053 0.927013 23.7994V13.0548C0.927013 3.2489 3.24882 0.927094 13.0547 0.927094Z" fill="#4680C2"/>
<path fill-rule="evenodd" clip-rule="evenodd" d="M29.5791 12.9807C29.752 12.4373 29.5791 12.0421 28.8134 12.0421H26.2693C25.6271 12.0421 25.3307 12.3879 25.1578 12.7584C25.1578 12.7584 23.8487 15.92 22.0209 17.9701C21.4281 18.5629 21.1564 18.7605 20.8353 18.7605C20.6624 18.7605 20.4401 18.5629 20.4401 18.0195V12.956C20.4401 12.3138 20.2425 12.0174 19.6991 12.0174H15.6977C15.3025 12.0174 15.0555 12.3138 15.0555 12.6102C15.0555 13.2277 15.9694 13.3759 16.0682 15.1049V18.8593C16.0682 19.6744 15.92 19.8226 15.5989 19.8226C14.7344 19.8226 12.6349 16.6363 11.3752 13.0054C11.1281 12.2891 10.8811 12.0174 10.2389 12.0174H7.67014C6.92914 12.0174 6.80564 12.3632 6.80564 12.7337C6.80564 13.4006 7.67014 16.7598 10.8317 21.2059C12.9313 24.244 15.92 25.8742 18.6123 25.8742C20.2425 25.8742 20.4401 25.5037 20.4401 24.8862V22.5891C20.4401 21.8481 20.5883 21.7246 21.107 21.7246C21.4775 21.7246 22.1444 21.9222 23.6511 23.3795C25.3801 25.1085 25.6765 25.8989 26.6398 25.8989H29.1839C29.9249 25.8989 30.2707 25.5284 30.0731 24.8121C29.8508 24.0958 29.011 23.0584 27.9242 21.8234C27.3314 21.1318 26.4422 20.3661 26.1705 19.9955C25.8 19.5015 25.8988 19.3039 26.1705 18.8593C26.1458 18.8593 29.258 14.4627 29.5791 12.9807Z" fill="white"/>
</svg>
